<svg data-v-423bf9ae="" xmlns="http://www.w3.org/2000/svg" viewBox="0 0 661 90" class="iconLeft"><!----><!----><!----><g data-v-423bf9ae="" id="15aeb7ec-8213-4004-b839-3135660ea71d" fill="white" transform="matrix(5.439710013831304,0,0,5.439710013831304,83.97286141104371,-0.17679120791802916)"><path d="M1.83 3.37L7.35 3.37L7.35 3.37Q7.67 3.37 7.83 3.40L7.83 3.40L7.83 3.40Q7.99 3.42 8.20 3.53L8.20 3.53L8.20 3.53Q8.40 3.64 8.48 3.91L8.48 3.91L8.48 3.91Q8.57 4.17 8.57 4.62L8.57 4.62L8.57 4.62Q8.57 5.07 8.48 5.33L8.48 5.33L8.48 5.33Q8.40 5.60 8.19 5.71L8.19 5.71L8.19 5.71Q7.98 5.81 7.82 5.83L7.82 5.83L7.82 5.83Q7.66 5.85 7.32 5.85L7.32 5.85L3.04 5.85L3.04 7.27L5.80 7.27L5.80 7.27Q6.13 7.27 6.29 7.29L6.29 7.29L6.29 7.29Q6.45 7.31 6.66 7.42L6.66 7.42L6.66 7.42Q7.03 7.63 7.03 8.53L7.03 8.53L7.03 8.53Q7.03 9.51 6.50 9.69L6.50 9.69L6.50 9.69Q6.27 9.76 5.78 9.76L5.78 9.76L3.04 9.76L3.04 12.40L3.04 12.40Q3.04 12.74 3.02 12.89L3.02 12.89L3.02 12.89Q3.00 13.05 2.88 13.26L2.88 13.26L2.88 13.26Q2.69 13.64 1.79 13.64L1.79 13.64L1.79 13.64Q0.81 13.64 0.64 13.10L0.64 13.10L0.64 13.10Q0.56 12.88 0.56 12.39L0.56 12.39L0.56 4.61L0.56 4.61Q0.56 3.89 0.83 3.63L0.83 3.63L0.83 3.63Q1.09 3.37 1.83 3.37L1.83 3.37ZM15.33 9.07L15.33 9.07L15.33 9.07Q15.33 9.93 14.90 10.34L14.90 10.34L14.90 10.34Q14.48 10.75 13.96 10.75L13.96 10.75L10.64 10.75L10.64 10.75Q10.64 11.14 11.10 11.41L11.10 11.41L11.10 11.41Q11.56 11.68 12.03 11.68L12.03 11.68L12.03 11.68Q12.84 11.68 13.30 11.51L13.30 11.51L13.45 11.45L13.45 11.45Q13.79 11.30 14.01 11.30L14.01 11.30L14.01 11.30Q14.46 11.30 14.78 11.93L14.78 11.93L14.78 11.93Q14.97 12.31 14.97 12.57L14.97 12.57L14.97 12.57Q14.97 13.82 11.98 13.82L11.98 13.82L11.98 13.82Q10.95 13.82 10.14 13.46L10.14 13.46L10.14 13.46Q9.34 13.10 8.89 12.52L8.89 12.52L8.89 12.52Q8.01 11.38 8.01 9.98L8.01 9.98L8.01 9.98Q8.01 8.22 9.15 7.16L9.15 7.16L9.15 7.16Q10.29 6.10 12.00 6.10L12.00 6.10L12.00 6.10Q13.94 6.10 14.85 7.48L14.85 7.48L14.85 7.48Q15.33 8.20 15.33 9.07ZM10.61 9.48L12.38 9.48L12.38 9.48Q12.91 9.48 12.91 9.03L12.91 9.03L12.91 9.03Q12.91 8.71 12.66 8.51L12.66 8.51L12.66 8.51Q12.42 8.32 11.96 8.32L11.96 8.32L11.96 8.32Q11.51 8.32 11.06 8.69L11.06 8.69L11.06 8.69Q10.61 9.06 10.61 9.48L10.61 9.48ZM21.19 3.19L21.19 3.19L21.19 3.19Q21.29 2.98 21.56 2.90L21.56 2.90L21.56 2.90Q21.83 2.81 22.27 2.81L22.27 2.81L22.27 2.81Q22.71 2.81 22.97 2.90L22.97 2.90L22.97 2.90Q23.24 2.98 23.35 3.19L23.35 3.19L23.35 3.19Q23.45 3.40 23.47 3.56L23.47 3.56L23.47 3.56Q23.49 3.72 23.49 4.05L23.49 4.05L23.49 12.40L23.49 12.40Q23.49 12.73 23.47 12.89L23.47 12.89L23.47 12.89Q23.45 13.05 23.34 13.24L23.34 13.24L23.34 13.24Q23.13 13.62 22.16 13.62L22.16 13.62L22.16 13.62Q21.18 13.62 21.07 12.94L21.07 12.94L21.07 12.94Q20.48 13.61 19.43 13.61L19.43 13.61L19.43 13.61Q18.17 13.61 17.14 12.51L17.14 12.51L17.14 12.51Q16.10 11.41 16.10 9.95L16.10 9.95L16.10 9.95Q16.10 8.48 17.14 7.38L17.14 7.38L17.14 7.38Q18.19 6.27 19.43 6.27L19.43 6.27L19.43 6.27Q20.47 6.27 21.04 6.97L21.04 6.97L21.04 4.03L21.04 4.03Q21.04 3.71 21.06 3.55L21.06 3.55L21.06 3.55Q21.08 3.39 21.19 3.19ZM18.91 10.79L18.91 10.79L18.91 10.79Q19.28 11.17 19.80 11.17L19.80 11.17L19.80 11.17Q20.31 11.17 20.66 10.79L20.66 10.79L20.66 10.79Q21 10.42 21 9.96L21 9.96L21 9.96Q21 9.51 20.67 9.11L20.67 9.11L20.67 9.11Q20.34 8.72 19.78 8.72L19.78 8.72L19.78 8.72Q19.22 8.72 18.89 9.11L18.89 9.11L18.89 9.11Q18.55 9.49 18.55 9.95L18.55 9.95L18.55 9.95Q18.55 10.42 18.91 10.79ZM24.40 9.95L24.40 9.95Q24.40 8.27 25.58 7.18L25.58 7.18L25.58 7.18Q26.75 6.09 28.27 6.09L28.27 6.09L28.27 6.09Q29.78 6.09 30.94 7.18L30.94 7.18L30.94 7.18Q32.10 8.26 32.10 9.94L32.10 9.94L32.10 9.94Q32.10 11.10 31.50 12.01L31.50 12.01L31.50 12.01Q30.90 12.91 30.04 13.34L30.04 13.34L30.04 13.34Q29.18 13.76 28.25 13.76L28.25 13.76L28.25 13.76Q27.33 13.76 26.46 13.31L26.46 13.31L26.46 13.31Q25.59 12.85 25.00 11.96L25.00 11.96L25.00 11.96Q24.40 11.07 24.40 9.95L24.40 9.95ZM27.33 10.96L27.33 10.96L27.33 10.96Q27.78 11.30 28.24 11.30L28.24 11.30L28.24 11.30Q28.70 11.30 29.16 10.95L29.16 10.95L29.16 10.95Q29.62 10.60 29.62 9.91L29.62 9.91L29.62 9.91Q29.62 9.23 29.19 8.89L29.19 8.89L29.19 8.89Q28.76 8.55 28.25 8.55L28.25 8.55L28.25 8.55Q27.75 8.55 27.31 8.90L27.31 8.90L27.31 8.90Q26.88 9.25 26.88 9.93L26.88 9.93L26.88 9.93Q26.88 10.61 27.33 10.96ZM38.02 6.34L38.02 6.34L38.02 6.34Q38.29 6.43 38.46 6.63L38.46 6.63L38.46 6.63Q38.64 6.83 38.64 7.28L38.64 7.28L38.64 7.28Q38.64 7.73 38.37 8.26L38.37 8.26L38.37 8.26Q38.11 8.79 37.60 8.79L37.60 8.79L37.60 8.79Q37.35 8.79 37.12 8.68L37.12 8.68L37.12 8.68Q36.89 8.57 36.51 8.57L36.51 8.57L36.51 8.57Q36.13 8.57 35.80 8.83L35.80 8.83L35.80 8.83Q35.48 9.10 35.48 9.48L35.48 9.48L35.48 12.42L35.48 12.42Q35.48 12.74 35.45 12.90L35.45 12.90L35.45 12.90Q35.43 13.06 35.32 13.27L35.32 13.27L35.32 13.27Q35.11 13.64 34.23 13.64L34.23 13.64L34.23 13.64Q33.56 13.64 33.26 13.40L33.26 13.40L33.26 13.40Q33.04 13.20 33.01 12.80L33.01 12.80L33.01 12.80Q33.01 12.66 33.01 12.39L33.01 12.39L33.01 7.48L33.01 7.48Q33.01 7.15 33.03 6.99L33.03 6.99L33.03 6.99Q33.05 6.83 33.15 6.64L33.15 6.64L33.15 6.64Q33.35 6.26 34.24 6.26L34.24 6.26L34.24 6.26Q35.08 6.26 35.29 6.58L35.29 6.58L35.29 6.58Q35.45 6.80 35.45 7.04L35.45 7.04L35.45 7.04Q35.52 6.94 35.65 6.80L35.65 6.80L35.65 6.80Q35.78 6.66 36.22 6.43L36.22 6.43L36.22 6.43Q36.65 6.19 36.98 6.19L36.98 6.19L36.98 6.19Q37.31 6.19 37.53 6.22L37.53 6.22L37.53 6.22Q37.76 6.26 38.02 6.34ZM53.86 3.77L53.86 3.77L53.86 3.77Q53.97 3.98 53.99 4.14L53.99 4.14L53.99 4.14Q54.01 4.31 54.01 4.63L54.01 4.63L54.01 12.40L54.01 12.40Q54.01 13.37 53.48 13.54L53.48 13.54L53.48 13.54Q53.21 13.62 52.81 13.62L52.81 13.62L52.81 13.62Q52.40 13.62 52.16 13.55L52.16 13.55L52.16 13.55Q51.93 13.48 51.80 13.38L51.80 13.38L51.80 13.38Q51.67 13.29 51.60 13.10L51.60 13.10L51.60 13.10Q51.53 12.87 51.53 12.38L51.53 12.38L51.53 7.69L51.53 7.69Q51.18 8.12 50.51 9.07L50.51 9.07L50.51 9.07Q49.84 10.01 49.66 10.25L49.66 10.25L49.66 10.25Q49.48 10.49 49.41 10.58L49.41 10.58L49.41 10.58Q49.34 10.67 49.06 10.83L49.06 10.83L49.06 10.83Q48.79 10.99 48.48 10.99L48.48 10.99L48.48 10.99Q48.16 10.99 47.90 10.84L47.90 10.84L47.90 10.84Q47.64 10.70 47.53 10.56L47.53 10.56L47.42 10.40L47.42 10.40Q47.14 10.05 46.31 8.91L46.31 8.91L46.31 8.91Q45.49 7.77 45.42 7.69L45.42 7.69L45.42 12.40L45.42 12.40Q45.42 12.73 45.40 12.89L45.40 12.89L45.40 12.89Q45.37 13.05 45.26 13.24L45.26 13.24L45.26 13.24Q45.05 13.62 44.17 13.62L44.17 13.62L44.17 13.62Q43.32 13.62 43.11 13.24L43.11 13.24L43.11 13.24Q42.99 13.05 42.97 12.88L42.97 12.88L42.97 12.88Q42.95 12.71 42.95 12.38L42.95 12.38L42.95 4.61L42.95 4.61Q42.95 4.28 42.97 4.12L42.97 4.12L42.97 4.12Q42.99 3.96 43.11 3.75L43.11 3.75L43.11 3.75Q43.32 3.39 44.20 3.39L44.20 3.39L44.20 3.39Q44.58 3.39 44.85 3.48L44.85 3.48L44.85 3.48Q45.12 3.57 45.21 3.67L45.21 3.67L45.29 3.75L48.47 7.92L48.47 7.92Q50.85 4.77 51.65 3.77L51.65 3.77L51.65 3.77Q51.88 3.39 52.77 3.39L52.77 3.39L52.77 3.39Q53.66 3.39 53.86 3.77ZM62.24 9.07L62.24 9.07L62.24 9.07Q62.24 9.93 61.82 10.34L61.82 10.34L61.82 10.34Q61.39 10.75 60.87 10.75L60.87 10.75L57.55 10.75L57.55 10.75Q57.55 11.14 58.02 11.41L58.02 11.41L58.02 11.41Q58.48 11.68 58.94 11.68L58.94 11.68L58.94 11.68Q59.75 11.68 60.21 11.51L60.21 11.51L60.37 11.45L60.37 11.45Q60.70 11.30 60.93 11.30L60.93 11.30L60.93 11.30Q61.38 11.30 61.70 11.93L61.70 11.93L61.70 11.93Q61.88 12.31 61.88 12.57L61.88 12.57L61.88 12.57Q61.88 13.82 58.90 13.82L58.90 13.82L58.90 13.82Q57.86 13.82 57.06 13.46L57.06 13.46L57.06 13.46Q56.25 13.10 55.80 12.52L55.80 12.52L55.80 12.52Q54.92 11.38 54.92 9.98L54.92 9.98L54.92 9.98Q54.92 8.22 56.06 7.16L56.06 7.16L56.06 7.16Q57.20 6.10 58.91 6.10L58.91 6.10L58.91 6.10Q60.86 6.10 61.77 7.48L61.77 7.48L61.77 7.48Q62.24 8.20 62.24 9.07ZM57.53 9.48L59.29 9.48L59.29 9.48Q59.82 9.48 59.82 9.03L59.82 9.03L59.82 9.03Q59.82 8.71 59.58 8.51L59.58 8.51L59.58 8.51Q59.33 8.32 58.88 8.32L58.88 8.32L58.88 8.32Q58.42 8.32 57.97 8.69L57.97 8.69L57.97 8.69Q57.53 9.06 57.53 9.48L57.53 9.48ZM68.17 6.34L68.17 6.34L68.17 6.34Q68.43 6.43 68.61 6.63L68.61 6.63L68.61 6.63Q68.78 6.83 68.78 7.28L68.78 7.28L68.78 7.28Q68.78 7.73 68.52 8.26L68.52 8.26L68.52 8.26Q68.25 8.79 67.75 8.79L67.75 8.79L67.75 8.79Q67.49 8.79 67.26 8.68L67.26 8.68L67.26 8.68Q67.03 8.57 66.65 8.57L66.65 8.57L66.65 8.57Q66.28 8.57 65.95 8.83L65.95 8.83L65.95 8.83Q65.62 9.10 65.62 9.48L65.62 9.48L65.62 12.42L65.62 12.42Q65.62 12.74 65.60 12.90L65.60 12.90L65.60 12.90Q65.58 13.06 65.46 13.27L65.46 13.27L65.46 13.27Q65.25 13.64 64.37 13.64L64.37 13.64L64.37 13.64Q63.70 13.64 63.41 13.40L63.41 13.40L63.41 13.40Q63.18 13.20 63.15 12.80L63.15 12.80L63.15 12.80Q63.15 12.66 63.15 12.39L63.15 12.39L63.15 7.48L63.15 7.48Q63.15 7.15 63.18 6.99L63.18 6.99L63.18 6.99Q63.20 6.83 63.29 6.64L63.29 6.64L63.29 6.64Q63.49 6.26 64.39 6.26L64.39 6.26L64.39 6.26Q65.23 6.26 65.44 6.58L65.44 6.58L65.44 6.58Q65.59 6.80 65.59 7.04L65.59 7.04L65.59 7.04Q65.66 6.94 65.79 6.80L65.79 6.80L65.79 6.80Q65.93 6.66 66.36 6.43L66.36 6.43L66.36 6.43Q66.79 6.19 67.12 6.19L67.12 6.19L67.12 6.19Q67.45 6.19 67.68 6.22L67.68 6.22L67.68 6.22Q67.90 6.26 68.17 6.34ZM71.44 9.95L71.44 9.95L71.44 9.95Q71.44 10.54 71.83 10.87L71.83 10.87L71.83 10.87Q72.23 11.20 72.67 11.20L72.67 11.20L72.67 11.20Q73.11 11.20 73.49 10.94L73.49 10.94L73.49 10.94Q73.88 10.68 74.12 10.68L74.12 10.68L74.12 10.68Q74.54 10.68 75.14 11.42L75.14 11.42L75.14 11.42Q75.46 11.83 75.46 12.15L75.46 12.15L75.46 12.15Q75.46 12.68 74.69 13.15L74.69 13.15L74.69 13.15Q73.89 13.71 72.73 13.71L72.73 13.71L72.73 13.71Q71.43 13.71 70.22 12.77L70.22 12.77L70.22 12.77Q69.65 12.32 69.29 11.57L69.29 11.57L69.29 11.57Q68.92 10.82 68.92 9.92L68.92 9.92L68.92 9.92Q68.92 9.02 69.29 8.28L69.29 8.28L69.29 8.28Q69.65 7.55 70.22 7.10L70.22 7.10L70.22 7.10Q71.39 6.17 72.70 6.17L72.70 6.17L72.70 6.17Q73.23 6.17 73.74 6.32L73.74 6.32L73.74 6.32Q74.24 6.47 74.48 6.61L74.48 6.61L74.70 6.75L74.70 6.75Q74.96 6.92 75.10 7.01L75.10 7.01L75.10 7.01Q75.46 7.29 75.46 7.65L75.46 7.65L75.46 7.65Q75.46 8.01 75.17 8.46L75.17 8.46L75.17 8.46Q74.66 9.23 74.20 9.23L74.20 9.23L74.20 9.23Q73.93 9.23 73.44 8.92L73.44 8.92L73.44 8.92Q73.19 8.68 72.72 8.68L72.72 8.68L72.72 8.68Q72.25 8.68 71.85 9.02L71.85 9.02L71.85 9.02Q71.44 9.35 71.44 9.95ZM79.65 13.61L79.65 13.61L79.65 13.61Q78.23 13.61 77.30 12.54L77.30 12.54L77.30 12.54Q76.37 11.47 76.37 9.93L76.37 9.93L76.37 7.48L76.37 7.48Q76.37 7.14 76.39 6.99L76.39 6.99L76.39 6.99Q76.41 6.83 76.51 6.62L76.51 6.62L76.51 6.62Q76.71 6.24 77.60 6.24L77.60 6.24L77.60 6.24Q78.58 6.24 78.75 6.78L78.75 6.78L78.75 6.78Q78.83 7.00 78.83 7.49L78.83 7.49L78.83 9.94L78.83 9.94Q78.83 10.51 79.16 10.84L79.16 10.84L79.16 10.84Q79.49 11.16 80.05 11.16L80.05 11.16L80.05 11.16Q80.60 11.16 80.94 10.82L80.94 10.82L80.94 10.82Q81.28 10.49 81.28 9.94L81.28 9.94L81.28 7.46L81.28 7.46Q81.28 7.14 81.31 6.98L81.31 6.98L81.31 6.98Q81.33 6.82 81.44 6.61L81.44 6.61L81.44 6.61Q81.62 6.24 82.52 6.24L82.52 6.24L82.52 6.24Q83.40 6.24 83.59 6.62L83.59 6.62L83.59 6.62Q83.69 6.83 83.71 6.99L83.71 6.99L83.71 6.99Q83.73 7.15 83.73 7.48L83.73 7.48L83.73 12.43L83.73 12.43Q83.73 12.74 83.71 12.90L83.71 12.90L83.71 12.90Q83.69 13.06 83.58 13.26L83.58 13.26L83.58 13.26Q83.37 13.62 82.50 13.62L82.50 13.62L82.50 13.62Q81.65 13.62 81.45 13.29L81.45 13.29L81.45 13.29Q81.31 13.05 81.31 12.71L81.31 12.71L81.31 12.71Q81.26 12.81 81.06 12.99L81.06 12.99L81.06 12.99Q80.86 13.17 80.68 13.30L80.68 13.30L80.68 13.30Q80.21 13.61 79.65 13.61ZM84.85 10.68L84.85 4.02L84.85 4.02Q84.85 3.70 84.88 3.54L84.88 3.54L84.88 3.54Q84.90 3.37 84.99 3.16L84.99 3.16L84.99 3.16Q85.19 2.79 86.09 2.79L86.09 2.79L86.09 2.79Q86.94 2.79 87.15 3.16L87.15 3.16L87.15 3.16Q87.26 3.37 87.28 3.54L87.28 3.54L87.28 3.54Q87.30 3.71 87.30 4.03L87.30 4.03L87.30 10.51L87.30 10.51Q87.30 11.02 87.39 11.15L87.39 11.15L87.39 11.15Q87.47 11.28 87.76 11.28L87.76 11.28L87.76 11.28Q88.05 11.28 88.14 11.31L88.14 11.31L88.14 11.31Q88.24 11.33 88.38 11.42L88.38 11.42L88.38 11.42Q88.66 11.61 88.66 12.42L88.66 12.42L88.66 12.42Q88.66 13.30 88.38 13.50L88.38 13.50L88.38 13.50Q88.02 13.75 86.65 13.58L86.65 13.58L86.65 13.58Q85.57 13.44 85.25 12.87L85.25 12.87L85.25 12.87Q84.85 12.18 84.85 10.68L84.85 10.68ZM89.22 9.95L89.22 9.95Q89.22 8.27 90.40 7.18L90.40 7.18L90.40 7.18Q91.57 6.09 93.09 6.09L93.09 6.09L93.09 6.09Q94.60 6.09 95.76 7.18L95.76 7.18L95.76 7.18Q96.92 8.26 96.92 9.94L96.92 9.94L96.92 9.94Q96.92 11.10 96.32 12.01L96.32 12.01L96.32 12.01Q95.72 12.91 94.86 13.34L94.86 13.34L94.86 13.34Q94.00 13.76 93.07 13.76L93.07 13.76L93.07 13.76Q92.15 13.76 91.28 13.31L91.28 13.31L91.28 13.31Q90.41 12.85 89.82 11.96L89.82 11.96L89.82 11.96Q89.22 11.07 89.22 9.95L89.22 9.95ZM92.15 10.96L92.15 10.96L92.15 10.96Q92.60 11.30 93.06 11.30L93.06 11.30L93.06 11.30Q93.52 11.30 93.98 10.95L93.98 10.95L93.98 10.95Q94.44 10.60 94.44 9.91L94.44 9.91L94.44 9.91Q94.44 9.23 94.01 8.89L94.01 8.89L94.01 8.89Q93.58 8.55 93.07 8.55L93.07 8.55L93.07 8.55Q92.57 8.55 92.13 8.90L92.13 8.90L92.13 8.90Q91.70 9.25 91.70 9.93L91.70 9.93L91.70 9.93Q91.70 10.61 92.15 10.96ZM105.27 6.43L105.27 6.43L105.27 6.43Q105.99 6.86 105.99 7.35L105.99 7.35L105.99 7.35Q105.99 7.63 105.71 8.12L105.71 8.12L102.82 13.09L102.82 13.09Q102.68 13.33 102.37 13.52L102.37 13.52L102.37 13.52Q102.06 13.71 101.76 13.71L101.76 13.71L101.76 13.71Q101.46 13.71 101.19 13.56L101.19 13.56L101.19 13.56Q100.91 13.41 100.80 13.26L100.80 13.26L100.67 13.10L97.76 8.12L97.76 8.12Q97.48 7.66 97.48 7.36L97.48 7.36L97.48 7.36Q97.48 6.86 98.21 6.43L98.21 6.43L98.21 6.43Q98.74 6.12 99.05 6.12L99.05 6.12L99.05 6.12Q99.36 6.12 99.53 6.31L99.53 6.31L99.53 6.31Q99.71 6.50 99.90 6.87L99.90 6.87L101.74 10.40L103.57 6.87L103.57 6.87Q103.73 6.61 103.80 6.49L103.80 6.49L103.80 6.49Q103.88 6.37 104.05 6.25L104.05 6.25L104.05 6.25Q104.22 6.13 104.50 6.13L104.50 6.13L104.50 6.13Q104.78 6.13 105.27 6.43Z"></path></g><!----><g data-v-423bf9ae="" id="bb95dd2a-f045-4ad6-b9ee-2a1bd9a609cc" transform="matrix(1.0232854767035935,0,0,1.0232854767035935,-16.907778027171553,-7.167678722716893)" stroke="none" fill="white"><circle cx="35.526" cy="37.087" r="4"></circle><circle cx="63.738" cy="37.087" r="5.89"></circle><path fill-rule="evenodd" clip-rule="evenodd" d="M68.847 15.276H33.492L17.123 7.201v74.857s-1.091 13.095 12.44 13.095h38.411s14.622-1.308 14.622-15.495V7.201l-13.749 8.075zM35.769 47.994c-6.203 0-11.232-5.028-11.232-11.231s5.029-11.231 11.232-11.231C41.971 25.531 47 30.559 47 36.762s-5.029 11.232-11.231 11.232zm16.07 5.526l-1.989 4.26-1.99-4.26-1.99-4.258h7.959l-1.99 4.258zm12.377-5.526c-6.203 0-11.231-5.028-11.231-11.231s5.028-11.231 11.231-11.231 11.231 5.028 11.231 11.231-5.028 11.231-11.231 11.231z"></path></g><!----></svg>